<mxfile host="app.diagrams.net" agent="Mozilla/5.0 (X11; Linux x86_64) AppleWebKit/537.36 (KHTML, like Gecko) Chrome/136.0.0.0 Safari/537.36" version="27.1.5">
  <diagram name="Page-1" id="kQ77mVpCnLT3zRUQ0eIG">
    <mxGraphModel grid="1" page="1" gridSize="10" guides="1" tooltips="1" connect="1" arrows="1" fold="1" pageScale="1" pageWidth="850" pageHeight="1100" background="none" math="0" shadow="0">
      <root>
        <mxCell id="0" />
        <mxCell id="1" parent="0" />
        <mxCell id="TWg2nknVNPXCANY7vD9T-21" value="" style="group" connectable="0" vertex="1" parent="1">
          <mxGeometry x="510" y="160" width="320" height="130" as="geometry" />
        </mxCell>
        <mxCell id="fW-XozuZDEEgh5E1QmoW-1" value="" style="group" connectable="0" vertex="1" parent="TWg2nknVNPXCANY7vD9T-21">
          <mxGeometry x="70" y="30" width="140" height="70" as="geometry" />
        </mxCell>
        <mxCell id="YK_oEpTVciatvS6-Ny2O-6" value="" style="group" connectable="0" vertex="1" parent="fW-XozuZDEEgh5E1QmoW-1">
          <mxGeometry y="40" width="140" height="30" as="geometry" />
        </mxCell>
        <mxCell id="BtHvc5jIWFkt6weI6OUo-51" value="DR" style="rounded=0;whiteSpace=wrap;html=1;" vertex="1" parent="YK_oEpTVciatvS6-Ny2O-6">
          <mxGeometry x="60" width="80" height="30" as="geometry" />
        </mxCell>
        <mxCell id="TWg2nknVNPXCANY7vD9T-4" value="latch" style="edgeStyle=orthogonalEdgeStyle;rounded=0;orthogonalLoop=1;jettySize=auto;html=1;dashed=1;startArrow=classic;startFill=0;endArrow=none;" edge="1" parent="fW-XozuZDEEgh5E1QmoW-1">
          <mxGeometry x="-0.0086" relative="1" as="geometry">
            <mxPoint x="100.02999999999997" as="targetPoint" />
            <mxPoint x="100.02999999999997" y="40" as="sourcePoint" />
            <mxPoint as="offset" />
            <Array as="points">
              <mxPoint x="100.02999999999997" y="20" />
              <mxPoint x="100.02999999999997" y="20" />
            </Array>
          </mxGeometry>
        </mxCell>
        <mxCell id="BtHvc5jIWFkt6weI6OUo-37" style="edgeStyle=orthogonalEdgeStyle;rounded=0;orthogonalLoop=1;jettySize=auto;html=1;entryX=0.75;entryY=1;entryDx=0;entryDy=0;exitX=0.5;exitY=1;exitDx=0;exitDy=0;" edge="1" parent="1" source="BtHvc5jIWFkt6weI6OUo-14" target="BtHvc5jIWFkt6weI6OUo-35">
          <mxGeometry relative="1" as="geometry">
            <Array as="points">
              <mxPoint x="280" y="640" />
              <mxPoint x="120" y="640" />
              <mxPoint x="120" y="230" />
              <mxPoint x="220" y="230" />
            </Array>
          </mxGeometry>
        </mxCell>
        <mxCell id="TWg2nknVNPXCANY7vD9T-13" value="data" style="edgeStyle=orthogonalEdgeStyle;rounded=0;orthogonalLoop=1;jettySize=auto;html=1;" edge="1" parent="1" source="BtHvc5jIWFkt6weI6OUo-14" target="BtHvc5jIWFkt6weI6OUo-6">
          <mxGeometry x="0.9032" y="10" relative="1" as="geometry">
            <Array as="points">
              <mxPoint x="280" y="640" />
            </Array>
            <mxPoint as="offset" />
          </mxGeometry>
        </mxCell>
        <mxCell id="TWg2nknVNPXCANY7vD9T-29" style="edgeStyle=orthogonalEdgeStyle;rounded=0;orthogonalLoop=1;jettySize=auto;html=1;entryX=0.75;entryY=1;entryDx=0;entryDy=0;" edge="1" parent="1" source="BtHvc5jIWFkt6weI6OUo-14" target="BtHvc5jIWFkt6weI6OUo-49">
          <mxGeometry relative="1" as="geometry">
            <Array as="points">
              <mxPoint x="280" y="640" />
              <mxPoint x="440" y="640" />
              <mxPoint x="440" y="600" />
            </Array>
          </mxGeometry>
        </mxCell>
        <mxCell id="BtHvc5jIWFkt6weI6OUo-46" style="edgeStyle=orthogonalEdgeStyle;rounded=0;orthogonalLoop=1;jettySize=auto;html=1;entryX=0.75;entryY=1;entryDx=0;entryDy=0;" edge="1" parent="1" source="BtHvc5jIWFkt6weI6OUo-17" target="BtHvc5jIWFkt6weI6OUo-45">
          <mxGeometry relative="1" as="geometry">
            <Array as="points">
              <mxPoint x="700" y="580" />
              <mxPoint x="700" y="510" />
            </Array>
          </mxGeometry>
        </mxCell>
        <mxCell id="TWg2nknVNPXCANY7vD9T-9" value="signals" style="edgeStyle=orthogonalEdgeStyle;rounded=0;orthogonalLoop=1;jettySize=auto;html=1;dashed=1;" edge="1" parent="1">
          <mxGeometry relative="1" as="geometry">
            <mxPoint x="100" y="310" as="targetPoint" />
            <mxPoint x="20" y="310" as="sourcePoint" />
            <Array as="points">
              <mxPoint x="100" y="310" />
            </Array>
          </mxGeometry>
        </mxCell>
        <mxCell id="BtHvc5jIWFkt6weI6OUo-18" value="CU" style="rounded=0;whiteSpace=wrap;html=1;" vertex="1" parent="1">
          <mxGeometry x="-90" y="110" width="120" height="400" as="geometry" />
        </mxCell>
        <mxCell id="BtHvc5jIWFkt6weI6OUo-26" value="" style="edgeStyle=orthogonalEdgeStyle;rounded=0;orthogonalLoop=1;jettySize=auto;html=1;" edge="1" parent="1" source="BtHvc5jIWFkt6weI6OUo-6" target="BtHvc5jIWFkt6weI6OUo-51">
          <mxGeometry x="-0.1525" y="15" relative="1" as="geometry">
            <mxPoint as="offset" />
            <mxPoint x="861" y="282" as="sourcePoint" />
            <Array as="points">
              <mxPoint x="810" y="245" />
              <mxPoint x="810" y="245" />
            </Array>
            <mxPoint x="789.9999999999995" y="240.0588235294117" as="targetPoint" />
          </mxGeometry>
        </mxCell>
        <mxCell id="BtHvc5jIWFkt6weI6OUo-33" value="" style="group" connectable="0" vertex="1" parent="1">
          <mxGeometry x="200" y="340" width="160" height="140.47000000000003" as="geometry" />
        </mxCell>
        <mxCell id="BtHvc5jIWFkt6weI6OUo-31" value="" style="group" connectable="0" vertex="1" parent="BtHvc5jIWFkt6weI6OUo-33">
          <mxGeometry width="160" height="80" as="geometry" />
        </mxCell>
        <mxCell id="BtHvc5jIWFkt6weI6OUo-38" value="alu_op" style="edgeStyle=orthogonalEdgeStyle;rounded=0;orthogonalLoop=1;jettySize=auto;html=1;dashed=1;startArrow=classic;startFill=0;endArrow=none;" edge="1" parent="BtHvc5jIWFkt6weI6OUo-31" source="BtHvc5jIWFkt6weI6OUo-29">
          <mxGeometry x="-0.0086" relative="1" as="geometry">
            <mxPoint x="-50" y="40" as="targetPoint" />
            <mxPoint as="offset" />
          </mxGeometry>
        </mxCell>
        <mxCell id="BtHvc5jIWFkt6weI6OUo-29" value="" style="shape=trapezoid;perimeter=trapezoidPerimeter;whiteSpace=wrap;html=1;fixedSize=1;rotation=-180;" vertex="1" parent="BtHvc5jIWFkt6weI6OUo-31">
          <mxGeometry width="160" height="80" as="geometry" />
        </mxCell>
        <mxCell id="BtHvc5jIWFkt6weI6OUo-30" value="ALU" style="text;html=1;align=center;verticalAlign=middle;resizable=0;points=[];autosize=1;strokeColor=none;fillColor=none;" vertex="1" parent="BtHvc5jIWFkt6weI6OUo-31">
          <mxGeometry x="46.666666666666664" y="20" width="50" height="30" as="geometry" />
        </mxCell>
        <mxCell id="BtHvc5jIWFkt6weI6OUo-32" value="NZVC" style="rounded=0;whiteSpace=wrap;html=1;" vertex="1" parent="BtHvc5jIWFkt6weI6OUo-33">
          <mxGeometry y="100.47" width="70" height="40" as="geometry" />
        </mxCell>
        <mxCell id="TWg2nknVNPXCANY7vD9T-10" style="rounded=0;orthogonalLoop=1;jettySize=auto;html=1;exitX=0.773;exitY=-0.006;exitDx=0;exitDy=0;exitPerimeter=0;" edge="1" parent="BtHvc5jIWFkt6weI6OUo-33" source="BtHvc5jIWFkt6weI6OUo-29" target="BtHvc5jIWFkt6weI6OUo-32">
          <mxGeometry relative="1" as="geometry" />
        </mxCell>
        <mxCell id="BtHvc5jIWFkt6weI6OUo-43" style="edgeStyle=orthogonalEdgeStyle;rounded=0;orthogonalLoop=1;jettySize=auto;html=1;" edge="1" parent="1" source="BtHvc5jIWFkt6weI6OUo-35">
          <mxGeometry relative="1" as="geometry">
            <mxPoint x="240" y="341" as="targetPoint" />
            <Array as="points">
              <mxPoint x="240" y="341" />
            </Array>
          </mxGeometry>
        </mxCell>
        <mxCell id="BtHvc5jIWFkt6weI6OUo-45" value="MUX" style="shape=trapezoid;perimeter=trapezoidPerimeter;whiteSpace=wrap;html=1;fixedSize=1;direction=west;rotation=-90;" vertex="1" parent="1">
          <mxGeometry x="730" y="470" width="80" height="40" as="geometry" />
        </mxCell>
        <mxCell id="BtHvc5jIWFkt6weI6OUo-47" style="edgeStyle=orthogonalEdgeStyle;rounded=0;orthogonalLoop=1;jettySize=auto;html=1;" edge="1" parent="1" source="BtHvc5jIWFkt6weI6OUo-23">
          <mxGeometry relative="1" as="geometry">
            <mxPoint x="750" y="480" as="targetPoint" />
            <Array as="points">
              <mxPoint x="680" y="480" />
              <mxPoint x="680" y="480" />
            </Array>
          </mxGeometry>
        </mxCell>
        <mxCell id="BtHvc5jIWFkt6weI6OUo-48" value="addr" style="edgeStyle=orthogonalEdgeStyle;rounded=0;orthogonalLoop=1;jettySize=auto;html=1;" edge="1" parent="1" source="BtHvc5jIWFkt6weI6OUo-45" target="BtHvc5jIWFkt6weI6OUo-6">
          <mxGeometry relative="1" as="geometry">
            <Array as="points">
              <mxPoint x="840" y="490" />
              <mxPoint x="840" y="490" />
            </Array>
          </mxGeometry>
        </mxCell>
        <mxCell id="TWg2nknVNPXCANY7vD9T-23" style="edgeStyle=orthogonalEdgeStyle;rounded=0;orthogonalLoop=1;jettySize=auto;html=1;" edge="1" parent="1" source="BtHvc5jIWFkt6weI6OUo-51" target="BtHvc5jIWFkt6weI6OUo-49">
          <mxGeometry relative="1" as="geometry">
            <Array as="points">
              <mxPoint x="440" y="240" />
              <mxPoint x="440" y="580" />
            </Array>
          </mxGeometry>
        </mxCell>
        <mxCell id="TWg2nknVNPXCANY7vD9T-25" style="edgeStyle=orthogonalEdgeStyle;rounded=0;orthogonalLoop=1;jettySize=auto;html=1;" edge="1" parent="1" source="BtHvc5jIWFkt6weI6OUo-51" target="BtHvc5jIWFkt6weI6OUo-23">
          <mxGeometry relative="1" as="geometry">
            <Array as="points">
              <mxPoint x="440" y="240" />
              <mxPoint x="440" y="480" />
            </Array>
          </mxGeometry>
        </mxCell>
        <mxCell id="TWg2nknVNPXCANY7vD9T-7" value="sel" style="edgeStyle=orthogonalEdgeStyle;rounded=0;orthogonalLoop=1;jettySize=auto;html=1;dashed=1;startArrow=classic;startFill=0;endArrow=none;" edge="1" parent="1">
          <mxGeometry x="-0.0086" relative="1" as="geometry">
            <mxPoint x="769.68" y="420" as="targetPoint" />
            <mxPoint x="769.68" y="460" as="sourcePoint" />
            <mxPoint as="offset" />
            <Array as="points">
              <mxPoint x="769.68" y="440" />
              <mxPoint x="769.68" y="440" />
            </Array>
          </mxGeometry>
        </mxCell>
        <mxCell id="TWg2nknVNPXCANY7vD9T-8" value="opcode" style="edgeStyle=orthogonalEdgeStyle;rounded=0;orthogonalLoop=1;jettySize=auto;html=1;" edge="1" parent="1" source="BtHvc5jIWFkt6weI6OUo-6" target="BtHvc5jIWFkt6weI6OUo-18">
          <mxGeometry relative="1" as="geometry">
            <Array as="points">
              <mxPoint x="460" y="120" />
              <mxPoint x="460" y="120" />
            </Array>
          </mxGeometry>
        </mxCell>
        <mxCell id="TWg2nknVNPXCANY7vD9T-11" style="edgeStyle=orthogonalEdgeStyle;rounded=0;orthogonalLoop=1;jettySize=auto;html=1;" edge="1" parent="1" source="BtHvc5jIWFkt6weI6OUo-32" target="BtHvc5jIWFkt6weI6OUo-18">
          <mxGeometry relative="1" as="geometry">
            <Array as="points">
              <mxPoint x="120" y="460" />
              <mxPoint x="120" y="460" />
            </Array>
          </mxGeometry>
        </mxCell>
        <mxCell id="TWg2nknVNPXCANY7vD9T-12" value="" style="group" connectable="0" vertex="1" parent="1">
          <mxGeometry x="580" y="430" width="60" height="60" as="geometry" />
        </mxCell>
        <mxCell id="BtHvc5jIWFkt6weI6OUo-23" value="AR" style="rounded=0;whiteSpace=wrap;html=1;" vertex="1" parent="TWg2nknVNPXCANY7vD9T-12">
          <mxGeometry y="34.285714285714285" width="60" height="25.71428571428571" as="geometry" />
        </mxCell>
        <mxCell id="TWg2nknVNPXCANY7vD9T-3" value="latch" style="edgeStyle=orthogonalEdgeStyle;rounded=0;orthogonalLoop=1;jettySize=auto;html=1;dashed=1;startArrow=classic;startFill=0;endArrow=none;" edge="1" parent="TWg2nknVNPXCANY7vD9T-12">
          <mxGeometry x="-0.0086" relative="1" as="geometry">
            <mxPoint x="29.730000000000018" as="targetPoint" />
            <mxPoint x="29.730000000000018" y="34.285714285714285" as="sourcePoint" />
            <mxPoint as="offset" />
            <Array as="points">
              <mxPoint x="29.730000000000018" y="17.142857142857142" />
              <mxPoint x="29.730000000000018" y="17.142857142857142" />
            </Array>
          </mxGeometry>
        </mxCell>
        <mxCell id="TWg2nknVNPXCANY7vD9T-16" value="" style="group" connectable="0" vertex="1" parent="1">
          <mxGeometry x="880" y="50" width="170" height="620" as="geometry" />
        </mxCell>
        <mxCell id="BtHvc5jIWFkt6weI6OUo-12" value="" style="group" connectable="0" vertex="1" parent="TWg2nknVNPXCANY7vD9T-16">
          <mxGeometry y="53.44827586206897" width="170" height="566.551724137931" as="geometry" />
        </mxCell>
        <mxCell id="BtHvc5jIWFkt6weI6OUo-6" value="MEM" style="rounded=0;whiteSpace=wrap;html=1;" vertex="1" parent="BtHvc5jIWFkt6weI6OUo-12">
          <mxGeometry width="170" height="566.551724137931" as="geometry" />
        </mxCell>
        <mxCell id="BtHvc5jIWFkt6weI6OUo-8" value="IN" style="whiteSpace=wrap;html=1;aspect=fixed;" vertex="1" parent="BtHvc5jIWFkt6weI6OUo-12">
          <mxGeometry x="140.43478260869566" y="433.24543610547676" width="28.545596492969572" height="28.545596492969572" as="geometry" />
        </mxCell>
        <mxCell id="BtHvc5jIWFkt6weI6OUo-11" value="OUT" style="whiteSpace=wrap;html=1;aspect=fixed;" vertex="1" parent="BtHvc5jIWFkt6weI6OUo-12">
          <mxGeometry x="140.43478260869566" y="499.8985801217039" width="28.545596492969572" height="28.545596492969572" as="geometry" />
        </mxCell>
        <mxCell id="TWg2nknVNPXCANY7vD9T-26" style="edgeStyle=orthogonalEdgeStyle;rounded=0;orthogonalLoop=1;jettySize=auto;html=1;" edge="1" parent="1" source="BtHvc5jIWFkt6weI6OUo-29" target="BtHvc5jIWFkt6weI6OUo-14">
          <mxGeometry relative="1" as="geometry" />
        </mxCell>
        <mxCell id="TWg2nknVNPXCANY7vD9T-28" value="" style="group" connectable="0" vertex="1" parent="1">
          <mxGeometry x="470" y="520" width="180" height="100" as="geometry" />
        </mxCell>
        <mxCell id="TWg2nknVNPXCANY7vD9T-2" value="latch" style="edgeStyle=orthogonalEdgeStyle;rounded=0;orthogonalLoop=1;jettySize=auto;html=1;dashed=1;startArrow=classic;startFill=0;endArrow=none;" edge="1" parent="TWg2nknVNPXCANY7vD9T-28" source="BtHvc5jIWFkt6weI6OUo-17">
          <mxGeometry x="-0.0086" relative="1" as="geometry">
            <mxPoint x="130" y="20" as="targetPoint" />
            <mxPoint x="120" y="-130" as="sourcePoint" />
            <mxPoint as="offset" />
          </mxGeometry>
        </mxCell>
        <mxCell id="TWg2nknVNPXCANY7vD9T-27" value="" style="group" connectable="0" vertex="1" parent="TWg2nknVNPXCANY7vD9T-28">
          <mxGeometry width="180" height="100" as="geometry" />
        </mxCell>
        <mxCell id="BtHvc5jIWFkt6weI6OUo-17" value="PC" style="rounded=0;whiteSpace=wrap;html=1;" vertex="1" parent="TWg2nknVNPXCANY7vD9T-27">
          <mxGeometry x="100" y="45" width="60" height="30" as="geometry" />
        </mxCell>
        <mxCell id="BtHvc5jIWFkt6weI6OUo-58" value="+1/2/4" style="edgeStyle=orthogonalEdgeStyle;rounded=0;orthogonalLoop=1;jettySize=auto;html=1;entryX=0.25;entryY=1;entryDx=0;entryDy=0;" edge="1" parent="TWg2nknVNPXCANY7vD9T-27" source="BtHvc5jIWFkt6weI6OUo-17" target="BtHvc5jIWFkt6weI6OUo-49">
          <mxGeometry x="0.7461" relative="1" as="geometry">
            <Array as="points">
              <mxPoint x="190" y="60" />
              <mxPoint x="190" />
              <mxPoint />
              <mxPoint y="40" />
            </Array>
            <mxPoint as="offset" />
          </mxGeometry>
        </mxCell>
        <mxCell id="BtHvc5jIWFkt6weI6OUo-50" style="edgeStyle=orthogonalEdgeStyle;rounded=0;orthogonalLoop=1;jettySize=auto;html=1;" edge="1" parent="TWg2nknVNPXCANY7vD9T-27" source="BtHvc5jIWFkt6weI6OUo-49" target="BtHvc5jIWFkt6weI6OUo-17">
          <mxGeometry relative="1" as="geometry" />
        </mxCell>
        <mxCell id="TWg2nknVNPXCANY7vD9T-32" value="" style="group" connectable="0" vertex="1" parent="TWg2nknVNPXCANY7vD9T-27">
          <mxGeometry x="19.999999999999996" y="-10" width="40" height="110" as="geometry" />
        </mxCell>
        <mxCell id="BtHvc5jIWFkt6weI6OUo-49" value="MUX" style="shape=trapezoid;perimeter=trapezoidPerimeter;whiteSpace=wrap;html=1;fixedSize=1;direction=west;rotation=-90;" vertex="1" parent="TWg2nknVNPXCANY7vD9T-32">
          <mxGeometry x="-19.999999999999996" y="50" width="80" height="40" as="geometry" />
        </mxCell>
        <mxCell id="TWg2nknVNPXCANY7vD9T-31" value="sel" style="edgeStyle=orthogonalEdgeStyle;rounded=0;orthogonalLoop=1;jettySize=auto;html=1;dashed=1;startArrow=classic;startFill=0;endArrow=none;" edge="1" parent="TWg2nknVNPXCANY7vD9T-32">
          <mxGeometry x="-0.0086" relative="1" as="geometry">
            <mxPoint x="19.63999999999999" as="targetPoint" />
            <mxPoint x="19.63999999999999" y="40" as="sourcePoint" />
            <mxPoint as="offset" />
            <Array as="points">
              <mxPoint x="19.63999999999999" y="20" />
              <mxPoint x="19.63999999999999" y="20" />
            </Array>
          </mxGeometry>
        </mxCell>
        <mxCell id="TWg2nknVNPXCANY7vD9T-33" value="" style="group" connectable="0" vertex="1" parent="1">
          <mxGeometry x="170" y="550" width="170" height="60" as="geometry" />
        </mxCell>
        <mxCell id="BtHvc5jIWFkt6weI6OUo-14" value="ACC" style="rounded=0;whiteSpace=wrap;html=1;" vertex="1" parent="TWg2nknVNPXCANY7vD9T-33">
          <mxGeometry x="50" width="120" height="60" as="geometry" />
        </mxCell>
        <mxCell id="TWg2nknVNPXCANY7vD9T-5" value="latch" style="edgeStyle=orthogonalEdgeStyle;rounded=0;orthogonalLoop=1;jettySize=auto;html=1;dashed=1;startArrow=classic;startFill=0;endArrow=none;" edge="1" parent="TWg2nknVNPXCANY7vD9T-33" source="BtHvc5jIWFkt6weI6OUo-14">
          <mxGeometry x="-0.0086" relative="1" as="geometry">
            <mxPoint y="30" as="targetPoint" />
            <mxPoint y="30" as="sourcePoint" />
            <mxPoint as="offset" />
            <Array as="points">
              <mxPoint y="30" />
            </Array>
          </mxGeometry>
        </mxCell>
        <mxCell id="TWg2nknVNPXCANY7vD9T-39" value="" style="group" connectable="0" vertex="1" parent="1">
          <mxGeometry x="150" y="235" width="130" height="80" as="geometry" />
        </mxCell>
        <mxCell id="BtHvc5jIWFkt6weI6OUo-41" value="0" style="endArrow=classic;html=1;rounded=0;entryX=0.5;entryY=1;entryDx=0;entryDy=0;" edge="1" parent="TWg2nknVNPXCANY7vD9T-39">
          <mxGeometry width="50" height="50" relative="1" as="geometry">
            <mxPoint x="89.71000000000001" as="sourcePoint" />
            <mxPoint x="89.71000000000001" y="40" as="targetPoint" />
          </mxGeometry>
        </mxCell>
        <mxCell id="TWg2nknVNPXCANY7vD9T-36" value="" style="group" connectable="0" vertex="1" parent="TWg2nknVNPXCANY7vD9T-39">
          <mxGeometry y="40" width="130" height="40" as="geometry" />
        </mxCell>
        <mxCell id="BtHvc5jIWFkt6weI6OUo-35" value="MUX" style="shape=trapezoid;perimeter=trapezoidPerimeter;whiteSpace=wrap;html=1;fixedSize=1;direction=west;" vertex="1" parent="TWg2nknVNPXCANY7vD9T-36">
          <mxGeometry x="50" width="80" height="40" as="geometry" />
        </mxCell>
        <mxCell id="TWg2nknVNPXCANY7vD9T-35" value="sel" style="edgeStyle=orthogonalEdgeStyle;rounded=0;orthogonalLoop=1;jettySize=auto;html=1;dashed=1;startArrow=classic;startFill=0;endArrow=none;" edge="1" parent="TWg2nknVNPXCANY7vD9T-36">
          <mxGeometry x="-0.0086" relative="1" as="geometry">
            <mxPoint y="19.639999999999986" as="targetPoint" />
            <mxPoint x="60" y="19.639999999999986" as="sourcePoint" />
            <mxPoint as="offset" />
          </mxGeometry>
        </mxCell>
        <mxCell id="YK_oEpTVciatvS6-Ny2O-139" style="edgeStyle=orthogonalEdgeStyle;rounded=0;orthogonalLoop=1;jettySize=auto;html=1;entryX=0.25;entryY=1;entryDx=0;entryDy=0;fontSize=12;startSize=8;endSize=8;" edge="1" parent="1" source="BtHvc5jIWFkt6weI6OUo-51" target="BtHvc5jIWFkt6weI6OUo-29">
          <mxGeometry relative="1" as="geometry">
            <Array as="points">
              <mxPoint x="320" y="240" />
            </Array>
          </mxGeometry>
        </mxCell>
      </root>
    </mxGraphModel>
  </diagram>
</mxfile>
